Visit [url="http://team-cc.com/"]http://team-cc.com/[/url] For More EXCLUSIVE Releases

[code]Format                           : AVI
Format/Info                      : Audio Video Interleave
Format profile                   : OpenDML
File size                        : 1.09 GiB
Duration                         : 2h 16mn
Overall bit rate                 : 1 145 Kbps
Writing application              : Lavf52.31.0

Video
ID                               : 0
Format                           : MPEG-4 Visual
Format profile                   : Simple@L3
Format settings, BVOP            : No
Format settings, QPel            : No
Format settings, GMC             : No warppoints
Format settings, Matrix          : Default (H.263)
Codec ID                         : XVID
Codec ID/Hint                    : XviD
Duration                         : 2h 16mn
Bit rate                         : 107 Kbps
Width                            : 608 pixels
Height                           : 272 pixels
Display aspect ratio             : 2.25:1
Frame rate                       : 29.970 fps
Color space                      : YUV
Chroma subsampling               : 4:2:0
Bit depth                        : 8 bits
Scan type                        : Progressive
Compression mode                 : Lossy
Bits/(Pixel*Frame)               : 0.022
Stream size                      : 104 MiB (9%)
Writing library                  : XviD 1.2.1 (UTC 2008-12-04)

Audio
ID                               : 1
Format                           : MPEG Audio
Format version                   : Version 1
Format profile                   : Layer 3
Mode                             : Joint stereo
Mode extension                   : MS Stereo
Codec ID                         : 55
Codec ID/Hint                    : MP3
Duration                         : 2h 16mn
Bit rate mode                    : Constant
Bit rate                         : 128 Kbps
Channel(s)                       : 2 channels
Sampling rate                    : 44.1 KHz
Compression mode                 : Lossy
Stream size                      : 9.34 MiB (1%)
Alignment                        : Aligned on interleaves
Interleave, duration             : 38 ms (1.13 video frame)[/code]
  
http://i.imgur.com/5B7ZS.png  
http://i.imgur.com/e9jm6.png  
http://i.imgur.com/m0kQ3.png  
http://i.imgur.com/9Yiic.png

Visit [url="http://team-cc.com/"]http://team-cc.com/[/url] For More EXCLUSIVE Releases	